<svg height="85" viewBox="0 0 179 85" width="179" xmlns="http://www.w3.org/2000/svg"><g fill="none" transform="translate(-1 -4)"><path d="m52.0669178 4.55172414h21.2037022l15.6948972 83.58620686h-17.1500532l-2.8063723-17.6459768h-15.1405521l-4.296175 17.6459768h-18.9516749zm15.3813581 54.62068966-4.4219547-32.6896552-7.1642522 32.6896552z" fill="#000"/><g transform="translate(96.827586 4.551724)"><path d="m.01058468 0h18.49936762v71.0998721h19.2228066v12.4863348h-37.72217422zm51.01967102 13.7246488h-12.8152045v-13.7246488h44.1297764v13.7246488h-12.7118562v69.8615581h-18.6027157z" fill="#000"/><path d="m15.7241379 32.6896552h4.4306534v16.8950193h4.6039191v2.9670496h-9.0345725zm14.4058114 0h5.0494597l3.7375902 19.8620689h-4.0841218l-.6683108-4.1931033h-2.9455181l-.6930631 4.1931033h-4.1831308zm3.613829 13.0452107-1.0643469-7.748659-1.0643469 7.748659zm7.821712-13.0452107h5.2227253c1.996692 0 3.5601935.3514652 4.6905521 1.0544061s1.6955293 2.0352393 1.6955293 3.9969349c0 2.4030771-.9818293 3.784417-2.945518 4.1440612 1.1881138.1471274 2.0791862.6375438 2.6732433 1.4712645.5940571.8337203.8910811 1.9780258.8910811 3.4329501 0 3.8416539-2.0214136 5.7624521-6.0643022 5.7624521h-6.1633109zm5.2969821 7.9448276c.9405902 0 1.5800173-.2125139 1.9182997-.6375479.3382825-.4250341.5074213-1.0870964.5074213-1.9862069 0-.7846783-.2145174-1.377265-.6435588-1.7777778-.4290409-.4005129-1.0560918-.6007663-1.8811709-.6007663h-.7673201v5.0022989zm.0742568 8.8521074c.9405902 0 1.6047691-.2329477 1.9925566-.6988506.3877874-.4659029.5816776-1.1974411.5816776-2.1946362 0-1.1279751-.1938902-1.9208147-.5816776-2.378544-.3877875-.4577292-1.0602166-.6865899-2.0173088-.6865899h-.9158334v5.9586207z" fill="#ffb300" transform="matrix(0 -1 1 0 -7.862069 77.379311)"/></g><path d="m11.5862068 5.00439006 15.5880445-4.17680394 1.0494898 86.25359958-15.5880444 4.1768036z" fill="#ffb300" transform="matrix(.96592583 .25881905 -.25881905 .96592583 12.862436 -3.280876)"/></g></svg>