<svg height="202" viewBox="0 0 430 202" width="430" xmlns="http://www.w3.org/2000/svg"><g fill="none" fill-rule="evenodd" transform="translate(-2.353687 -10.27007)"><path d="m51.8283848 0h51.2422802l37.929335 202h-41.445962l-6.7820665-42.644444h-36.5896675l-10.3824228 42.644444h-45.7998812zm37.1716152 132-10.6863905-79-17.3136095 79z" fill="#000" transform="translate(73.353687 10.27007)"/><g fill-rule="nonzero"><g transform="translate(233.353687 10.27007)"><path d="m.02557965 0h44.70680505v171.824691h46.4551159v30.175309h-91.16192095zm123.29753835 33.1679012h-30.9700776v-33.1679012h106.6469596v33.1679012h-30.720319v168.8320988h-44.956563z" fill="#000"/><path d="m38 79h10.7074122v40.82963h11.1261379v7.17037h-21.8335501zm34.8140442 0h12.2028609l9.0325097 48h-9.869961l-1.6150845-10.133333h-7.1183355l-1.6749025 10.133333h-10.1092327zm8.73342 31.525926-2.5721716-18.725926-2.5721717 18.725926zm18.9024708-31.525926h12.621586c4.825339 0 8.603801.8493742 11.335501 2.5481481 2.7317 1.698774 4.097529 4.9184949 4.097529 9.6592593 0 5.8074365-2.372754 9.1456746-7.118335 10.0148146 2.871275.355558 5.0247 1.540731 6.460338 3.555556 1.435638 2.014824 2.153446 4.780229 2.153446 8.296296 0 9.283997-4.885083 13.925926-14.655397 13.925926h-14.894668zm12.80104 19.2c2.273093 0 3.818375-.5135751 4.635891-1.5407407.817516-1.0271657 1.226268-2.6271497 1.226268-4.8 0-1.8963058-.518417-3.3283903-1.555267-4.2962963-1.036849-.9679061-2.552222-1.4518519-4.546163-1.4518519h-1.854357v12.0888889zm.179454 21.392593c2.273093 0 3.878192-.562957 4.815345-1.688889s1.405721-2.893816 1.405721-5.303704c0-2.72594-.468568-4.641969-1.405721-5.748148s-2.56219-1.659259-4.875163-1.659259h-2.213264v14.4z" fill="#ffb300" transform="matrix(0 -1 1 0 -19 187)"/></g><path d="m28 12.0939428 37.6711072-10.0939428 2.5362671 208.446198-37.6711072 10.093942z" fill="#ffb300" transform="matrix(.96592583 .25881905 -.25881905 .96592583 30.437907 -8.658715)"/></g></g></svg>