<svg height="49" viewBox="0 0 180 49" width="180" xmlns="http://www.w3.org/2000/svg"><g fill="none"><path d="m11.2465116 41.6093023 42.1953489-33.51627904-.3348838-.39069768-42.3627907 33.65581392c.1953489.055814.3627907.1395349.5023256.2511628z" fill="#febe10"/><path d="m4.297674 28.325581h12.083721v15.795349h-12.083721z" fill="#fbb040"/><g fill="#febe10"><path d="m55.2837209 26.6511628.2232558-.4744186-32.6790697-16.49302327-.2232558.47441857z"/><path d="m65.944186 2.95813953-.1116279-.50232558-49.5906976 12.44651165.1395348.5023256z"/><path d="m85.5069767 34.3534884c-.0279069-.1116279-.0279069-.1953489-.0279069-.3069768l-29.3023256-20.5674418c-.1395349.1116279-.3069768.2232558-.4465116.3348837l29.6093023 20.7906977c.0558139-.083721.0837209-.1674419.1674418-.2511628z"/><path d="m10.3813953 28.4093023c-4.52093018-.0558139-8.26046507 3.6-8.31627902 8.1209303-.05581395 4.5488372 3.57209302 8.2604651 8.12093022 8.316279 4.5488372.055814 8.2604651-3.572093 8.3162791-8.1209302.0558139-4.5209302-3.572093-8.2604651-8.1209303-8.3162791z"/><circle cx="20.818605" cy="10.548837" r="7.590698"/><path d="m56.2883721 30.3348837c-1.8139535-.027907-3.2930233-1.5069767-3.2651163-3.3488372.027907-1.8139535 1.5069768-3.2930232 3.3488372-3.2651163 1.8139535.027907 3.2930233 1.5069768 3.2651163 3.3488372-.027907 1.8418605-1.5348837 3.2930233-3.3488372 3.2651163z"/><path d="m50.8186047 14.7906977 15.1534883-11.6651163c-.1674418-.08372093-.3348837-.16744187-.5302325-.2511628l-14.9860465 11.5255814c.1116279.1395349.2232558.2511628.3627907.3906977z"/><path d="m50.5674419 19.5348837c-4.6046512-.0558139-8.2883721-3.8232558-8.2325582-8.427907.055814-4.60465112 3.8232558-8.28837205 8.427907-8.2325581 4.6046512.05581396 8.2883721 3.82325582 8.2325581 8.427907-.0558139 4.6046511-3.8232558 8.2883721-8.4279069 8.2325581z"/><circle cx="65.972093" cy="2.455814" r="2.455814"/></g><path d="m10.9395349 48.3906977c-8.31627909 0-10.9395349-5.0232558-10.9395349-11.7209303 0-6.5023255 2.84651163-11.6930232 10.9674419-11.6930232 7.9255814 0 10.8 4.772093 10.8 11.6930232 0 6.6139535-2.7348838 11.7209303-10.827907 11.7209303zm0-19.3953489c-3.51627909 0-5.52558141 1.8697675-5.52558141 7.6744186 0 6.2232559 1.98139535 7.7023256 5.52558141 7.7023256 3.7116279 0 5.4418604-2.2325581 5.4418604-7.7023256 0-5.916279-2.0372093-7.6744186-5.4418604-7.6744186z" fill="#000"/><path d="m35.7209302 48.2232558v-10.2139535c0-1.0883721 0-2.4558139-1.9255814-2.4558139-1.4232558 0-2.344186 1.6186046-3.1255814 3.1255814v9.516279h-4.744186v-12.3906976c0-1.3116279-.2790698-2.3162791-.4465116-3.3488372h4.3813953l.6976744 1.9255813c.6976745-.6418604 2.0372093-2.4558139 4.1023256-2.4558139 4.827907 0 5.7767442 2.7069767 5.7767442 6.3348837v9.9069768h-4.7162791z" fill="#000"/><path d="m44.8186047 48.2232558v-22.6046511h4.716279v22.6046511z" fill="#000"/><path d="m53.972093 48.2232558v-15.7116279h4.6883721v15.7116279z" fill="#000"/><path d="m72.8651163 48.2232558v-10.2139535c0-1.0883721 0-2.4558139-1.9255814-2.4558139-1.4232558 0-2.3441861 1.6186046-3.1255814 3.1255814v9.516279h-4.7162791v-12.3906976c0-1.3116279-.2790697-2.3162791-.4465116-3.3488372h4.3813953l.6976745 1.9255813c.6976744-.6418604 2.0372093-2.4558139 4.1023255-2.4558139 4.827907 0 5.7767442 2.7069767 5.7767442 6.3348837v9.9069768h-4.744186z" fill="#000"/><path d="m86.1209302 41.8604651c.4186047 2.0930233 1.7860465 2.8465116 3.4046512 2.8465116 1.3674419 0 3.2093023-.5023255 4.8558139-1.3395348l1.5627907 3.572093c-1.9255813.8651163-4.4093023 1.227907-6.6697674 1.227907-5.2744186 0-8.0372093-3.8232559-8.0372093-8.1767442 0-3.655814 1.6744186-8.483721 7.8139535-8.483721 5.972093 0 7.8976744 3.1534884 7.8976744 10.3534884zm2.9023256-6.7255814c-.6976744 0-2.7906977.1674419-2.9023256 3.2651163h6.055814c-.2232558-2.6232558-1.5906977-3.2651163-3.1534884-3.2651163z" fill="#000"/><path d="m113.972093 24.3348837c-7.981395.1116279-12.055814 6.7813954-12.055814 12.1674419 0 6.0558139 4.911628 11.7209302 12.223256 11.6651163v-3.0418605c-5.497675.1116279-9.069768-4.1023256-9.069768-8.5953488 0-4.0744186 2.95814-8.8186047 8.902326-9.1255814 6.64186-.3348838 9.627907 5.1069767 9.013954 9.1255814-.725582 4.6046511-3.013954 3.1255814-3.125582 2.5395348l-.083721-.1674418c-.027907-.1116279-.027907-.2511628-.027907-.3627907l.083721-4.827907c0-2.6232558-1.981395-3.8232558-4.744186-3.8232558-1.897674 0-4.213953.2511628-6 .8651163l1.227907 2.9302325c1.144186-.5581395 2.874419-1.0325581 4.52093-1.0325581 1.367442 0 1.367442.9767442 1.367442 1.5348837v.3906977h-.92093c-5.106977 0-6.641861 2.0651163-6.641861 4.4930232 0 2.2325582 1.451163 3.5162791 4.8 3.5162791 1.2 0 2.31628-.9488372 2.986047-1.4790698 0-.0279069.251163.2790698.474419.5860466v.0279069c.111627.1395349.223255.3069768.36279.4465117.027907.0279069.055814.0558139.055814.0558139 2.595349 2.6511628 8.455814 2.2604651 8.790698-5.7209302.27907-5.4976744-2.790698-12.3069768-12.139535-12.1674419zm2.260465 14.1767442c-.446511.5023256-1.283721 1.3116279-2.037209 1.3116279-.781396 0-1.841861-.0558139-1.841861-.9209302 0-1.172093.948838-1.7860465 3.293024-1.7860465h.586046z" fill="#000"/><path d="m9.9627907 37.7302326 8.2325581-21.2930233-.5023255-.1953488-8.20465121 21.2930232c.16744186.027907.33488372.1116279.47441861.1953489z" fill="#febe10"/><g fill="#febe10" transform="translate(129.488372 30.976744)"><path d="m.08372093.3627907h5.19069767l3.8511628 12.2511628 4.0465116-12.2511628h4.6604651l-6.1674418 16.9395349h-5.60930235z"/><path d="m28.2139535 5.69302326c-.2232558-1.70232559-1.3953488-2.34418605-2.7348837-2.34418605-2.8465117 0-3.7116279 2.59534884-3.7116279 5.69302326 0 1.03255813.0279069 5.30232553 3.6558139 5.30232553 2.4837209 0 2.7348837-1.8139534 2.8465116-2.4558139h4.883721c-.027907 5.3023256-5.4139535 5.7488372-7.6186047 5.7488372-1.6465116 0-4.5488372-.2790698-6.4186046-2.2604651-1.8418605-1.9813954-2.1767442-4.6604651-2.1767442-6.41860467 0-2.31627906.5302325-4.63255813 2.1209302-6.44651162 1.7302326-1.98139535 3.9627907-2.48372093 6.4186047-2.48372093 2.7348837 0 4.8279069.64186046 6.1674418 2.06511628 1.3674419 1.45116279 1.3953489 2.98604651 1.3953489 3.6z"/><path d="m39.0697674.3627907v10.0465116c0 .9209303.083721 1.8418605.5302326 2.5674419.6418605.9488372 1.7302326 1.3953488 2.8744186 1.3953488 2.9860465 0 3.3767442-2.427907 3.3767442-4.1023256v-9.87906973h4.5767442v9.79534883c0 1.8697675-.2511628 3.9069768-1.3116279 5.1627907-1.6465117 2.0093023-4.6604651 2.427907-6.8093024 2.427907-7.9813953 0-8.0093023-4.9674419-8.0093023-7.7302326l.027907-9.62790695h4.744186z"/></g></g></svg>